<svg xmlns="http://www.w3.org/2000/svg" viewBox="0 0 1210.0802 15.3899"><defs><style>.cls-1{fill:#fff;}.cls-2{fill:none;stroke:#fff;}</style></defs><title>Bar_Down</title><g id="Layer_2" data-name="Layer 2"><g id="Layer_1-2" data-name="Layer 1"><polygon class="cls-1" points="25.277 15.39 24.116 13.027 21.521 12.648 23.399 10.808 22.955 8.21 25.277 9.437 27.599 8.21 27.155 10.808 29.033 12.648 26.438 13.027 25.277 15.39"/><polygon class="cls-1" points="14.517 15.39 13.356 13.027 10.761 12.648 12.639 10.808 12.195 8.21 14.517 9.437 16.839 8.21 16.395 10.808 18.273 12.648 15.678 13.027 14.517 15.39"/><polygon class="cls-1" points="3.756 15.39 2.595 13.027 0 12.648 1.878 10.808 1.434 8.21 3.756 9.437 6.078 8.21 5.634 10.808 7.512 12.648 4.917 13.027 3.756 15.39"/><polygon class="cls-1" points="1206.324 15.39 1205.163 13.027 1202.568 12.648 1204.446 10.808 1204.002 8.21 1206.324 9.437 1208.646 8.21 1208.202 10.808 1210.08 12.648 1207.485 13.027 1206.324 15.39"/><polygon class="cls-1" points="1195.564 15.39 1194.403 13.027 1191.808 12.648 1193.686 10.808 1193.242 8.21 1195.564 9.437 1197.886 8.21 1197.442 10.808 1199.32 12.648 1196.725 13.027 1195.564 15.39"/><polygon class="cls-1" points="1184.803 15.39 1183.642 13.027 1181.047 12.648 1182.925 10.808 1182.481 8.21 1184.803 9.437 1187.125 8.21 1186.681 10.808 1188.559 12.648 1185.964 13.027 1184.803 15.39"/><polyline class="cls-2" points="0 0.5 598.285 0.5 609.87 9.592 621.455 0.5 1210.08 0.5"/></g></g></svg>