<svg xmlns="http://www.w3.org/2000/svg" viewBox="0 0 1210.0802 15.3899"><defs><style>.cls-1{fill:#fff;}.cls-2{fill:none;stroke:#fff;}</style></defs><title>Bar_Up</title><g id="Layer_2" data-name="Layer 2"><g id="Layer_1-2" data-name="Layer 1"><polygon class="cls-1" points="1184.803 0 1185.964 2.363 1188.559 2.742 1186.681 4.582 1187.125 7.18 1184.803 5.953 1182.481 7.18 1182.925 4.582 1181.047 2.742 1183.642 2.363 1184.803 0"/><polygon class="cls-1" points="1195.564 0 1196.725 2.363 1199.32 2.742 1197.442 4.582 1197.886 7.18 1195.564 5.953 1193.242 7.18 1193.686 4.582 1191.808 2.742 1194.403 2.363 1195.564 0"/><polygon class="cls-1" points="1206.324 0 1207.485 2.363 1210.08 2.742 1208.202 4.582 1208.646 7.18 1206.324 5.953 1204.002 7.18 1204.446 4.582 1202.568 2.742 1205.163 2.363 1206.324 0"/><polygon class="cls-1" points="3.756 0 4.917 2.363 7.512 2.742 5.634 4.582 6.078 7.18 3.756 5.953 1.434 7.18 1.878 4.582 0 2.742 2.595 2.363 3.756 0"/><polygon class="cls-1" points="14.517 0 15.678 2.363 18.273 2.742 16.395 4.582 16.839 7.18 14.517 5.953 12.195 7.18 12.639 4.582 10.761 2.742 13.356 2.363 14.517 0"/><polygon class="cls-1" points="25.277 0 26.438 2.363 29.033 2.742 27.155 4.582 27.599 7.18 25.277 5.953 22.955 7.18 23.399 4.582 21.521 2.742 24.116 2.363 25.277 0"/><polyline class="cls-2" points="1210.08 14.89 620.362 14.89 608.777 5.798 597.192 14.89 0 14.89"/></g></g></svg>