<svg xmlns="http://www.w3.org/2000/svg" xmlns:xlink="http://www.w3.org/1999/xlink" viewBox="0 0 151.6213 47.9027"><defs><style>.cls-1{fill:none;}.cls-2{isolation:isolate;}.cls-3{clip-path:url(#clip-path);}.cls-4{fill:url(#linear-gradient);}.cls-5{clip-path:url(#clip-path-2);}.cls-6{fill:url(#linear-gradient-2);}.cls-7{clip-path:url(#clip-path-3);}.cls-8{fill:url(#linear-gradient-3);}.cls-9{clip-path:url(#clip-path-4);}.cls-10{fill:url(#linear-gradient-4);}.cls-11{clip-path:url(#clip-path-5);}.cls-12{fill:url(#linear-gradient-5);}.cls-13{clip-path:url(#clip-path-6);}.cls-14{fill:url(#linear-gradient-6);}.cls-15{clip-path:url(#clip-path-7);}.cls-16{fill:url(#linear-gradient-7);}.cls-17{clip-path:url(#clip-path-8);}.cls-18{fill:url(#linear-gradient-8);}.cls-19{clip-path:url(#clip-path-9);}.cls-20{fill:url(#linear-gradient-9);}.cls-21{clip-path:url(#clip-path-10);}.cls-22{fill:url(#linear-gradient-10);}.cls-23{clip-path:url(#clip-path-11);}.cls-24{fill:url(#linear-gradient-11);}.cls-25{clip-path:url(#clip-path-12);}.cls-26{fill:url(#linear-gradient-12);}.cls-27{mix-blend-mode:multiply;}.cls-28{fill:#fff;}</style><clipPath id="clip-path"><path class="cls-1" d="M22.2446,10.2718S22.1331,25.42,22.1331,25.684c0,4.083-.7953,7.6911-2.02,9.8813-.77,1.3794-1.7069,2.1951-2.7228,2.2107.0887,0,.1835,0,.2723-.0024a17.3638,17.3638,0,0,0,2.46-.2171c2.2826-.36,4.6168-1.1132,6.11-2.7852,3.1331-3.5085,3.2086-9.1532,3.2086-9.61V10.2718Z"/></clipPath><linearGradient id="linear-gradient" x1="3403.7997" y1="-2092.5553" x2="3404.9991" y2="-2092.5553" gradientTransform="matrix(0, -22.5659, -22.5659, 0, -47196.9034, 76847.0554)" gradientUnits="userSpaceOnUse"><stop offset="0" stop-color="#fff"/><stop offset="0.5008" stop-color="#fff"/><stop offset="1" stop-color="#a4a3a3"/></linearGradient><clipPath id="clip-path-2"><path class="cls-1" d="M22.1115,25.5221a8.4214,8.4214,0,0,1-1.0544,4.3122,4.1573,4.1573,0,0,1-3.7,1.7524c-.04,0-.1619.0108-.2015.0108a4.39,4.39,0,0,1-4.666-4.5328H5.26c.1116,2.399.6165,5.5332,2.8392,7.6983a10.3792,10.3792,0,0,0,4.7176,2.4817,14.6257,14.6257,0,0,0,1.8088.3634c.5494.0828,1.1023.14,1.6457.1679.2027.0084,1.1323-.01,1.1323-.01,1.016,0,1.942-.7845,2.7108-2.1651,1.2259-2.19,2.0247-5.8343,2.0247-9.9173a1.2036,1.2036,0,0,0-.0144-.2711.541.541,0,0,0-.0132.1092"/></clipPath><linearGradient id="linear-gradient-2" x1="3397.0967" y1="-2618.8835" x2="3398.2962" y2="-2618.8835" gradientTransform="matrix(0, 12.217, 12.217, 0, 32008.6313, -41477.7971)" xlink:href="#linear-gradient"/><clipPath id="clip-path-3"><polygon class="cls-1" points="34.631 27.065 32.531 33.062 56.762 33.062 54.663 27.065 34.631 27.065"/></clipPath><linearGradient id="linear-gradient-3" x1="3115.2916" y1="-2606.0498" x2="3116.4911" y2="-2606.0498" gradientTransform="matrix(8.6627, 0, 0, -8.6627, -26948.2049, -22545.2566)" xlink:href="#linear-gradient"/><clipPath id="clip-path-4"><polygon class="cls-1" points="41.098 10.272 51.559 37.86 58.678 37.86 48.216 10.272 41.098 10.272"/></clipPath><linearGradient id="linear-gradient-4" x1="3478.1397" y1="-2059.8451" x2="3479.3392" y2="-2059.8451" gradientTransform="matrix(0, -23.2902, -23.2902, 0, -47924.2568, 81045.1334)" xlink:href="#linear-gradient"/><clipPath id="clip-path-5"><polygon class="cls-1" points="41.001 10.272 30.54 37.86 37.658 37.86 48.12 10.272 41.001 10.272"/></clipPath><linearGradient id="linear-gradient-5" x1="3717.6445" y1="-2361.5212" x2="3718.844" y2="-2361.5212" gradientTransform="matrix(-22.8527, 0, 0, 22.8527, 85010.9847, 53991.1046)" xlink:href="#linear-gradient"/><clipPath id="clip-path-6"><path class="cls-1" d="M93.0142,10.2718V25.1611c0,3.5241.343,6.9642,3.0647,9.61a10.575,10.575,0,0,0,4.8339,2.4794,12.1167,12.1167,0,0,0,9.2744-9.356c-.0144.0012-1.5569,3.7328-4.4,3.7328-4.5065,0-4.3769-3.8863-4.3769-7.4464V10.2718Z"/></clipPath><linearGradient id="linear-gradient-6" x1="3619.6742" y1="-2449.3231" x2="3620.8737" y2="-2449.3231" gradientTransform="matrix(0, 22.5825, 22.5825, 0, 55413.4378, -81731.0509)" xlink:href="#linear-gradient"/><clipPath id="clip-path-7"><polygon class="cls-1" points="81.019 10.272 81.019 33.246 89.416 37.525 89.416 10.272 81.019 10.272"/></clipPath><linearGradient id="linear-gradient-7" x1="3691.0173" y1="-2438.8458" x2="3692.2168" y2="-2438.8458" gradientTransform="matrix(0, 19.9181, 19.9181, 0, 48662.2915, -73505.9532)" xlink:href="#linear-gradient"/><clipPath id="clip-path-8"><rect class="cls-1" x="61.8276" y="10.2718" width="7.1957" height="27.5881"/></clipPath><linearGradient id="linear-gradient-8" x1="3678.2479" y1="-2423.6201" x2="3679.4473" y2="-2423.6201" gradientTransform="matrix(0, 21.7377, 21.7377, 0, 52749.4348, -79945.7433)" xlink:href="#linear-gradient"/><clipPath id="clip-path-9"><path class="cls-1" d="M121.6891,18.2268a8.4654,8.4654,0,0,0,.6573,3.566,8.457,8.457,0,0,1,2.3678-4.6648,9.13,9.13,0,0,1,12.164-.3371l2.8224-5.5032a18.7161,18.7161,0,0,0-8.5691-2.2514c-5.4852,0-9.4423,3.6333-9.4423,9.1905"/></clipPath><linearGradient id="linear-gradient-9" x1="3332.5703" y1="-2451.4234" x2="3333.7698" y2="-2451.4234" gradientTransform="matrix(0, 16.6944, 16.6944, 0, 41055.7176, -55625.8169)" xlink:href="#linear-gradient"/><clipPath id="clip-path-10"><path class="cls-1" d="M124.7142,17.1281a8.457,8.457,0,0,0-2.3678,4.6648c1.1059,2.3918,3.5337,3.2506,6.7519,4.167a16.5874,16.5874,0,0,1,2.3726.7989c1.0543.4846,1.9468,1.1971,1.9468,2.3258,0,1.9263-1.7788,2.7612-3.4485,2.7612-.0756,0-.1511,0-.2255-.0024a.0232.0232,0,0,1-.018,0,7.4794,7.4794,0,0,1-1.6433-.2567c-.1259-.0324-.2531-.0708-.3754-.1116a.1038.1038,0,0,1-.036-.0108,10.0218,10.0218,0,0,1-2.4242-1.2139,15.3274,15.3274,0,0,1-1.5953-1.2378l-3.0539,5.7383a17.665,17.665,0,0,0,3.8335,2.0343,16.3472,16.3472,0,0,0,5.79,1.09,12.036,12.036,0,0,0,7.7763-2.58c2.1771-1.8544,2.83-4.6492,2.83-7.3732a7.964,7.964,0,0,0-.2651-2.1219,6.1277,6.1277,0,0,0-1.9108-3.0634,9.98,9.98,0,0,0-3.0911-1.7945q-.7161-.2753-1.4874-.5013l-1.8184-.5434c-1.2331-.403-3.1559-1.02-3.1559-2.6173,0-1.5258,1.7417-2.2862,3.0479-2.2862a6.9424,6.9424,0,0,1,2.9579.6873c-.0252-.02-.0456-.0384-.07-.06a9.5833,9.5833,0,0,0-4.2018-.9824,8.5786,8.5786,0,0,0-6.1186,2.4889"/></clipPath><linearGradient id="linear-gradient-10" x1="3511.7105" y1="-1983.5671" x2="3512.9099" y2="-1983.5671" gradientTransform="matrix(0, -17.4024, -17.4024, 0, -34388.0423, 61148.0577)" xlink:href="#linear-gradient"/><clipPath id="clip-path-11"><polygon class="cls-1" points="69.025 20.95 81.53 37.667 89.605 37.674 69.025 10.229 69.025 20.95"/></clipPath><linearGradient id="linear-gradient-11" x1="3546.458" y1="-2042.6244" x2="3547.6575" y2="-2042.6244" gradientTransform="matrix(0, -22.3549, -22.3549, 0, -45583.2437, 79319.6606)" xlink:href="#linear-gradient"/><clipPath id="clip-path-12"><path class="cls-1" d="M109.807,10.2718V25.5545a12,12,0,0,1-9.0453,11.6961,20.2579,20.2579,0,0,0,4.5952.6093h.0456c.9164,0,1.8388-.1223,2.766-.1979a10.1964,10.1964,0,0,0,9.0405-6.686,19.0188,19.0188,0,0,0,.9944-5.8151V10.2718Z"/></clipPath><linearGradient id="linear-gradient-12" x1="3360.8004" y1="-2137.2066" x2="3361.9999" y2="-2137.2066" gradientTransform="matrix(22.2945, 0, 0, -22.2945, -74831.1771, -47623.8204)" gradientUnits="userSpaceOnUse"><stop offset="0" stop-color="#fff"/><stop offset="0.5008" stop-color="#fff"/><stop offset="1" stop-color="#cbcac9"/></linearGradient></defs><title>Janus_logo</title><g class="cls-2"><g id="Layer_2" data-name="Layer 2"><g id="Layer_1-2" data-name="Layer 1"><g class="cls-3"><rect class="cls-4" x="17.3903" y="10.2718" width="12.0512" height="27.5042"/></g><g class="cls-5"><rect class="cls-6" x="4.1883" y="21.2155" width="19.0224" height="20.7663" transform="translate(-20.5717 28.187) rotate(-60.8759)"/></g><g class="cls-7"><rect class="cls-8" x="32.5314" y="27.0646" width="24.2308" height="5.9975"/></g><g class="cls-9"><rect class="cls-10" x="36.4879" y="7.958" width="26.8001" height="32.2158" transform="translate(-5.4123 20.9266) rotate(-22.5036)"/></g><g class="cls-11"><rect class="cls-12" x="23.3833" y="11.1487" width="31.8935" height="25.8344" transform="translate(3.4381 53.0104) rotate(-70.3461)"/></g><g class="cls-13"><rect class="cls-14" x="89.4386" y="8.348" width="24.3242" height="30.8265" transform="translate(-2.503 30.812) rotate(-17.0378)"/></g><g class="cls-15"><rect class="cls-16" x="81.0194" y="10.2719" width="8.3964" height="27.2535"/></g><g class="cls-17"><rect class="cls-18" x="61.8276" y="10.2718" width="7.1957" height="27.5881"/></g><g class="cls-19"><rect class="cls-20" x="123.7231" y="5.9988" width="13.9435" height="18.8316" transform="translate(106.4913 144.7704) rotate(-86.1286)"/></g><g class="cls-21"><rect class="cls-22" x="115.8198" y="10.9646" width="29.7849" height="30.5855" transform="translate(7.7965 77.899) rotate(-34.1475)"/></g><g class="cls-23"><rect class="cls-24" x="62.4935" y="6.8641" width="33.6428" height="34.1745" transform="translate(4.2601 59.0412) rotate(-41.8603)"/></g><g class="cls-25"><rect class="cls-26" x="93.7643" y="11.7492" width="31.4365" height="24.6335" transform="translate(54.972 122.0159) rotate(-73.3008)"/></g><g class="cls-27"><path class="cls-28" d="M22.1343,25.5482c-.006-.1044-.0156-.1164-.0216.0264a8.449,8.449,0,0,1-1.0556,4.3122,4.16,4.16,0,0,1-3.7,1.7524c-.04,0-.1619.0108-.2015.0108a4.3914,4.3914,0,0,1-4.666-4.5328H5.2612c.11,2.399.6153,5.532,2.8392,7.6983a10.3745,10.3745,0,0,0,4.7164,2.4818,14.8631,14.8631,0,0,0,1.8088.3647c.5494.08,1.1023.1391,1.6469.1655.2.01,1.1311-.01,1.1311-.01a1.9726,1.9726,0,0,0,.3767-.036,1.8611,1.8611,0,0,1-.39.0468c.09,0,.1823,0,.2723-.0024a17.5492,17.5492,0,0,0,2.46-.2171c2.2826-.36,4.6168-1.1132,6.11-2.7852,3.1331-3.5085,3.2086-9.1532,3.2086-9.61V10.3243H22.2446s-.1,13.481-.11,15.2239m32.5288,1.5689h-.0792L48.2171,10.3243H41.001L34.6341,27.1171h-.0036l-.04.1127L30.54,37.9125H37.658l1.82-4.7979H49.74l1.82,4.7979h7.1177l-3.0719-8.1013Zm-12.9112,0L44.609,19.582l2.8572,7.5351ZM89.4158,10.3243H81.0194v15.952L69.0245,10.28v.0444H61.8276V37.9125h7.1969v-16.91L81.53,37.7193l8.0749.0084-.19-.2543Zm51.146,15.5285a6.1367,6.1367,0,0,0-1.9108-3.0635,9.957,9.957,0,0,0-3.0911-1.7944q-.7161-.2753-1.4873-.5013l-1.8172-.5434c-1.2343-.403-3.157-1.0184-3.157-2.6173,0-1.5258,1.7416-2.2862,3.0491-2.2862a6.9136,6.9136,0,0,1,2.9555.6873c-.0144-.012-.0276-.024-.0408-.036a10.01,10.01,0,0,1,1.8172,1.1455l2.8212-5.5044a18.7294,18.7294,0,0,0-8.5691-2.25c-5.4853,0-9.4423,3.6321-9.4423,9.1905a8.4654,8.4654,0,0,0,.6573,3.566c1.1059,2.3918,3.5337,3.2506,6.7519,4.167a16.6367,16.6367,0,0,1,2.3726.7989c1.0543.4846,1.9468,1.1959,1.9468,2.3258,0,1.9263-1.7788,2.7612-3.4485,2.7612-.0756,0-.15,0-.2255-.0037a.0161.0161,0,0,1-.018,0,7.405,7.405,0,0,1-1.6433-.2554c-.1259-.0324-.2531-.072-.3754-.11a.21.21,0,0,1-.036-.012,10.1131,10.1131,0,0,1-2.4254-1.2138,15.5829,15.5829,0,0,1-1.5953-1.2378l-3.0515,5.7383a17.61,17.61,0,0,0,3.8335,2.0343,16.3357,16.3357,0,0,0,5.7887,1.09,12.0316,12.0316,0,0,0,7.775-2.5813c2.1783-1.8533,2.8308-4.648,2.8308-7.372a7.964,7.964,0,0,0-.2651-2.1219m-30.7548-.2459a12.1681,12.1681,0,0,1-.7377,4.1778,4.33,4.33,0,0,1-3.2818,1.894c-4.5064,0-4.3769-3.8851-4.3769-7.4452V10.3243H93.0142V25.2136c0,3.5241.343,6.9642,3.0647,9.61A10.5039,10.5039,0,0,0,100.84,37.28c-.0264.0072-.0516.0168-.078.0228a20.2666,20.2666,0,0,0,4.5952.6093h.0456c.9164,0,1.8388-.1236,2.766-.1979a10.1965,10.1965,0,0,0,9.0405-6.686,18.9824,18.9824,0,0,0,.9944-5.8151V10.3243H109.807Z"/></g></g></g></g></svg>