<svg xmlns="http://www.w3.org/2000/svg" viewBox="0 0 110.4845 65.8726"><title>MH_logo_Small</title><g id="Layer_2" data-name="Layer 2"><g id="Layer_1-2" data-name="Layer 1"><path d="M30.0489,2.4733,29.8593,0l2.1212,1.5721A3.2969,3.2969,0,0,1,33.1042,3.8l.1847,2.4074-2.2259-1.65A3.0279,3.0279,0,0,1,30.0489,2.4733Z"/><path d="M34.4382,5.7367l-.19-2.4733L36.37,4.8355a3.2969,3.2969,0,0,1,1.1237,2.2277l.1847,2.4074-2.2259-1.65A3.0279,3.0279,0,0,1,34.4382,5.7367Z"/><path d="M38.8276,9l-.19-2.4733,2.1212,1.5721a3.2969,3.2969,0,0,1,1.1237,2.2277l.1847,2.4074-2.2259-1.65A3.0279,3.0279,0,0,1,38.8276,9Z"/><path d="M26.6163,3.4666l-2.4231.5309L26.31,5.576a3.2969,3.2969,0,0,0,2.4569.4344l2.3586-.5166L28.9043,3.8374A3.0279,3.0279,0,0,0,26.6163,3.4666Z"/><path d="M31.0056,6.73l-2.4231.5309L30.699,8.8393a3.2969,3.2969,0,0,0,2.4569.4344l2.3586-.5166L33.2937,7.1007A3.0279,3.0279,0,0,0,31.0056,6.73Z"/><path d="M35.3949,9.9933l-2.4231.5309,2.1165,1.5785a3.2969,3.2969,0,0,0,2.4569.4344l2.3586-.5166L37.683,10.364A3.0279,3.0279,0,0,0,35.3949,9.9933Z"/><path d="M80.4356,2.4733,80.6252,0,78.504,1.5721A3.2969,3.2969,0,0,0,77.38,3.8l-.1847,2.4074,2.2259-1.65A3.0279,3.0279,0,0,0,80.4356,2.4733Z"/><path d="M76.0463,5.7367l.19-2.4733L74.1147,4.8355A3.2969,3.2969,0,0,0,72.991,7.0631l-.1847,2.4074,2.2259-1.65A3.0279,3.0279,0,0,0,76.0463,5.7367Z"/><path d="M71.657,9l.19-2.4733L69.7253,8.0988a3.2969,3.2969,0,0,0-1.1237,2.2277l-.1847,2.4074,2.2259-1.65A3.0279,3.0279,0,0,0,71.657,9Z"/><path d="M83.8683,3.4666l2.4231.5309L84.1749,5.576A3.2969,3.2969,0,0,1,81.718,6.01l-2.3586-.5166L81.58,3.8374A3.0279,3.0279,0,0,1,83.8683,3.4666Z"/><path d="M79.479,6.73l2.4231.5309L79.7856,8.8393a3.2969,3.2969,0,0,1-2.4569.4344L74.97,8.7571l2.2208-1.6564A3.0279,3.0279,0,0,1,79.479,6.73Z"/><path d="M75.09,9.9933l2.4231.5309-2.1165,1.5785a3.2969,3.2969,0,0,1-2.4569.4344L70.5808,12.02l2.2208-1.6564A3.0279,3.0279,0,0,1,75.09,9.9933Z"/><path d="M4.6946,58.5783l-2.923-.641,2.5537-1.9037a3.9772,3.9772,0,0,1,2.964-.5234l2.8451.6238L7.4549,58.1316A3.6527,3.6527,0,0,1,4.6946,58.5783Z"/><path d="M9.99,54.6427l-2.923-.641L9.6211,52.098a3.9772,3.9772,0,0,1,2.964-.5234l2.8451.6238L12.7508,54.196A3.6527,3.6527,0,0,1,9.99,54.6427Z"/><path d="M15.2863,50.7071l-2.923-.641,2.5537-1.9037a3.9772,3.9772,0,0,1,2.964-.5234l2.8451.6238L18.0467,50.26A3.6527,3.6527,0,0,1,15.2863,50.7071Z"/><path d="M4.6484,62.8889l-.2293,2.9837,2.5593-1.896a3.9772,3.9772,0,0,0,1.3561-2.6871l.2234-2.9041L5.8723,60.3747A3.6527,3.6527,0,0,0,4.6484,62.8889Z"/><path d="M9.9443,58.9533,9.7149,61.937l2.5593-1.896A3.9772,3.9772,0,0,0,13.63,57.3539l.2234-2.9041-2.6856,1.9894A3.6527,3.6527,0,0,0,9.9443,58.9533Z"/><path d="M15.24,55.0177l-.2293,2.9837,2.5593-1.896a3.9772,3.9772,0,0,0,1.3561-2.6871l.2234-2.9041L16.464,52.5035A3.6527,3.6527,0,0,0,15.24,55.0177Z"/><path d="M105.79,58.5783l2.923-.641-2.5537-1.9037a3.9772,3.9772,0,0,0-2.964-.5234l-2.8451.6238,2.6795,1.9976A3.6527,3.6527,0,0,0,105.79,58.5783Z"/><path d="M100.4941,54.6427l2.923-.641-2.5537-1.9037a3.9772,3.9772,0,0,0-2.964-.5234l-2.8451.6238,2.6795,1.9976A3.6527,3.6527,0,0,0,100.4941,54.6427Z"/><path d="M95.1982,50.7071l2.923-.641-2.5537-1.9037a3.9772,3.9772,0,0,0-2.964-.5234l-2.8451.6238L92.4379,50.26A3.6527,3.6527,0,0,0,95.1982,50.7071Z"/><path d="M105.8361,62.8889l.2293,2.9837-2.5593-1.896a3.9772,3.9772,0,0,1-1.3561-2.6871l-.2234-2.9041,2.6856,1.9894A3.6527,3.6527,0,0,1,105.8361,62.8889Z"/><path d="M100.54,58.9533l.2293,2.9837L98.21,60.0409a3.9772,3.9772,0,0,1-1.3561-2.6871L96.6308,54.45l2.6856,1.9894A3.6527,3.6527,0,0,1,100.54,58.9533Z"/><path d="M95.2444,55.0177l.2293,2.9837-2.5593-1.896a3.9772,3.9772,0,0,1-1.3561-2.6871l-.2234-2.9041,2.6856,1.9894A3.6527,3.6527,0,0,1,95.2444,55.0177Z"/><path d="M27.8351,52.8323V47.954h-.9985l-1.9347,4.8783.208.8425h1.7475v1.7475h.9777V53.6748h.5721v-.8425Zm-.9465,0h-.9258l.9466-2.8916h.0519Z"/><path d="M31.9956,51.1472H31.694l-.624.4161V49.296q0-.4373.3952-.4371h.1663q.4472,0,.4473.5409v.6657h.9985v-.8322q0-1.2793-1.1442-1.2793h-.7177q-1.1442,0-1.144,1.2793v4.93q0,1.2588,1.144,1.2586h.78q1.1441,0,1.1442-1.2586V52.4268Q33.14,51.1471,31.9956,51.1472Zm.1456,2.9227a.3954.3954,0,0,1-.4473.4474h-.1872A.3908.3908,0,0,1,31.07,54.07V52.0522h.624q.4472,0,.4473.5409Z"/><path d="M35.0328,49.6077l-.2289-.6862a1.9067,1.9067,0,0,0,.6553-.406,2.1424,2.1424,0,0,0,.4264-.5616h.104l.6553.3537v7.1146h-.9882V49.4208Z"/><polygon points="45.902 47.954 44.799 55.422 43.717 55.422 43.104 51.095 42.5 55.422 41.419 55.422 40.316 47.954 41.304 47.954 42.012 53.55 42.719 47.954 43.499 47.954 44.206 53.55 44.913 47.954 45.902 47.954"/><path d="M50.8322,49.6077l-.2289-.6862a1.9067,1.9067,0,0,0,.6553-.406,2.1424,2.1424,0,0,0,.4264-.5616h.104l.6553.3537v7.1146h-.9882V49.4208Z"/><path d="M57.25,54.5277v.8946H54.5661V53.1236a1.31,1.31,0,0,1,.0312-.312.6848.6848,0,0,1,.1091-.2341,2.7356,2.7356,0,0,1,.2756-.3068l1.009-.9676a2.6825,2.6825,0,0,0,.182-.1973.7.7,0,0,0,.0936-.1406.3623.3623,0,0,0,.0312-.12c.0034-.0417.0052-.097.0052-.1665V49.296a.3816.3816,0,0,0-.4264-.437h-.0624a.3816.3816,0,0,0-.4264.437v.77h-.9985v-.8322q0-1.2793,1.1961-1.2793h.52q1.196,0,1.1961,1.2793v1.7891a1.0578,1.0578,0,0,1-.0572.364,1.1579,1.1579,0,0,1-.2963.3848l-1.1026,1.061a1.2131,1.2131,0,0,0-.2392.27.4509.4509,0,0,0-.0364.1458c-.0035.0487-.0052.1144-.0052.1976v1.0818Z"/><path d="M61.2749,51.1472h-.3016l-.624.4161V49.296q0-.4373.3952-.4371h.1664q.4472,0,.4473.5409v.6657h.9985v-.8322q0-1.2793-1.1442-1.2793h-.7177q-1.1443,0-1.144,1.2793v4.93q0,1.2588,1.144,1.2586h.78q1.1441,0,1.1442-1.2586V52.4268Q62.419,51.1471,61.2749,51.1472Zm.1456,2.9227a.3954.3954,0,0,1-.4473.4474H60.786a.3908.3908,0,0,1-.4368-.4474V52.0522h.624q.4472,0,.4473.5409Z"/><polygon points="65.987 48.859 65.987 55.422 64.988 55.422 64.988 48.859 64.031 48.859 64.031 47.954 66.944 47.954 66.944 48.859 65.987 48.859"/><polygon points="70.782 55.422 70.782 52.031 69.554 52.031 69.554 55.422 68.556 55.422 68.556 47.954 69.554 47.954 69.554 51.127 70.782 51.127 70.782 47.954 71.78 47.954 71.78 55.422 70.782 55.422"/><path d="M78.3743,49.9614v-.6551a.3909.3909,0,0,0-.4368-.4474h-.1559q-.4267,0-.4264.4474V50.544a.3662.3662,0,0,0,.0831.2809,2.1011,2.1011,0,0,0,.27.1872l.9466.51a4.419,4.419,0,0,1,.442.2757.7108.7108,0,0,1,.203.2392,1.3228,1.3228,0,0,1,.0728.5357v1.5913q0,1.2588-1.2066,1.2586h-.6136q-1.1963,0-1.1962-1.373v-.3744h.9986v.4057a.3906.3906,0,0,0,.4472.4368h.1768q.3952,0,.3951-.4368v-1.269a.3679.3679,0,0,0-.0831-.2809,2.1431,2.1431,0,0,0-.27-.1872l-.9466-.5305a2.963,2.963,0,0,1-.4526-.2809.6416.6416,0,0,1-.2027-.2962,1.4889,1.4889,0,0,1-.0624-.4733V49.2333q0-1.2793,1.1962-1.2793h.624q1.196,0,1.1962,1.2793v.7281Z"/><polygon points="82.837 48.859 82.837 55.422 81.838 55.422 81.838 48.859 80.881 48.859 80.881 47.954 83.793 47.954 83.793 48.859 82.837 48.859"/><rect x="84.5216" y="54.1533" width="1.061" height="1.269"/><rect x="46.6351" y="54.1533" width="1.061" height="1.269"/><path d="M50.3519,6.4669v7.7436H49.1738V6.4669h-1.129V5.3993h3.4362V6.4669Z"/><path d="M56.0094,14.2106V10.21H54.5613v4.0007H53.3832V5.3993h1.1781V9.1423h1.4481V5.3993h1.1781v8.8112Z"/><path d="M59.5191,14.2106V5.3993H62.44V6.4669H60.6972V9.1423h1.5461V10.21H60.6972V13.143H62.44v1.0676Z"/><path d="M7.7161,36.1646q.2805-5.98.6668-11.9665,1.5673-.2523,3.1365-.4876l2.9515,19.6814q-1.3252.1987-2.649.41-.8909-6.454-1.7688-12.91-.3,4.8189-.5319,9.6344-1.0329.1719-2.0649.3516Q5.6436,36.4111,3.764,31.9633q1.3087,6.3826,2.6044,12.7677-1.3205.2386-2.6393.49L0,25.6721q1.5615-.2979,3.1253-.5787Q5.472,30.6138,7.7161,36.1646Z"/><path d="M20.58,42.5456q-1.3283.1688-2.6554.3507-1.1194-8.17-2.2387-16.34c-.3113-2.25.67-3.5382,2.9489-3.8249q1.0687-.1337,2.1381-.26c2.28-.2669,3.54.7493,3.7767,3.0082q.8685,8.2,1.7371,16.4-1.331.141-2.6608.2949-.4192-3.6207-.8384-7.2414-1.5641.1811-3.1266.38Zm1.93-10.0069q-.3809-3.29-.7619-6.5805c-.0889-.7707-.546-1.1094-1.3711-1.01q-.3828.046-.7655.093c-.8251.1015-1.1883.54-1.09,1.3093q.4176,3.2858.8353,6.5716Q20.9326,32.7213,22.51,32.5387Z"/><path d="M36.0854,41.02q-3.1682.2213-6.3321.5159-.9226-9.9079-1.8452-19.8158,1.4287-.133,2.8583-.2521l1.4521,17.43q1.8487-.154,3.6989-.2833Z"/><path d="M40.7225,23.2223q.4343,8.7342.8685,17.4684-1.3351.0664-2.67.1458-.5192-8.73-1.0384-17.4592-1.36.0809-2.72.1745-.0828-1.2029-.1656-2.4058,4.1726-.2872,8.35-.4559l.0973,2.41Q42.0834,23.1547,40.7225,23.2223Z"/><path d="M58.3191,40.3689l.1011-9.0356q-1.6966-.019-3.3932-.0177.0034,4.5181.0069,9.0361-1.3365.001-2.6731.015-.1043-9.95-.2086-19.9,1.4332-.015,2.8666-.0161.0032,4.2269.0064,8.4537,1.7111-.0013,3.4221.0179.0473-4.2266.0946-8.4532,1.4331.016,2.866.046-.2081,9.9486-.4162,19.8971Q59.6555,40.3838,58.3191,40.3689Z"/><path d="M67.6985,40.634c-2.149-.0961-3.1874-1.2522-3.1145-3.5072q.22-6.5516.44-13.1031c.0733-2.27,1.2558-3.3742,3.5461-3.2721q1.3725.0621,2.7445.137c2.289.1265,3.3568,1.343,3.2034,3.6091l-.8672,13.0818c-.1524,2.251-1.3016,3.2979-3.4492,3.1795Q68.95,40.6908,67.6985,40.634Zm.7546-2.3788q.6875.0328,1.3749.069c.71.0375,1.0879-.3292,1.132-1.1044l.72-12.73c.0443-.7745-.3582-1.1869-1.2064-1.2314q-.6655-.0347-1.3312-.0664c-.8289-.0393-1.26.3315-1.2935,1.1065q-.276,6.3691-.5519,12.7382C67.2633,37.8127,67.6488,38.217,68.4531,38.2552Z"/><path d="M87.7521,22.2481q-.8895,8.0168-1.7789,16.0336c-.28,2.4989-1.4906,3.6223-3.6323,3.4088q-1.1234-.1113-2.2476-.2133c-2.1249-.1914-3.09-1.5311-2.894-4.0567q.6344-8.027,1.2687-16.054,1.43.113,2.859.24-.7161,8.0618-1.4322,16.1237c-.0766.8658.2771,1.3321,1.0606,1.4049q.546.0508,1.0917.1038c.727.0707,1.1343-.3236,1.2221-1.1883q.8141-8.0525,1.6283-16.105Q86.3253,22.09,87.7521,22.2481Z"/><path d="M96.3109,28.728q.1239-.8643.2478-1.7287a1.0751,1.0751,0,0,0-1.0654-1.3541q-.22-.0307-.441-.061a1.0614,1.0614,0,0,0-1.3634,1.0183q-.2177,1.6349-.4355,3.27a.9461.9461,0,0,0,.1326.7727,6.012,6.012,0,0,0,.6832.5957q1.22.8522,2.4259,1.7147a11.7082,11.7082,0,0,1,1.1087.9069,1.8994,1.8994,0,0,1,.4613.7149,3.3874,3.3874,0,0,1-.0167,1.4414q-.3213,2.096-.6426,4.1921c-.342,2.2111-1.5782,3.146-3.7121,2.8432q-.8152-.1152-1.631-.2254c-2.1172-.2848-3.03-1.62-2.7343-4.0425q.0611-.4952.1221-.99,1.3513.1666,2.7014.3464l-.1427,1.0716A1.0535,1.0535,0,0,0,93.0552,40.53q.237.0326.4741.0657,1.0589.1478,1.2244-1.0029l.48-3.3471a.9553.9553,0,0,0-.121-.7733,5.8062,5.8062,0,0,0-.6694-.5986q-1.1974-.8811-2.409-1.752a8.5779,8.5779,0,0,1-1.1523-.9022,1.7163,1.7163,0,0,1-.4628-.8539A3.8051,3.8051,0,0,1,90.4,30.0931q.2493-2.022.4986-4.044c.2749-2.2545,1.5526-3.2489,3.8295-2.9427q.89.12,1.7789.2459c2.2745.3231,3.2365,1.6272,2.8894,3.8717l-.294,1.918Q97.7075,28.9282,96.3109,28.728Z"/><path d="M100.2066,44.0537q1.6276-9.8167,3.2551-19.6335,3.5171.5831,7.0229,1.2518-.2259,1.1844-.4519,2.3688-2.0743-.3957-4.1528-.7612l-1.0464,5.9509q1.8062.3176,3.6093.6585-.224,1.1848-.448,2.37-1.7878-.338-3.5789-.653-.5737,3.2624-1.1473,6.5247,1.9712.3466,3.9387.7219l-.4518,2.3686Q103.4863,44.5975,100.2066,44.0537Z"/></g></g></svg>