<svg xmlns="http://www.w3.org/2000/svg" viewBox="0 0 396.6224 236.4724"><defs><style>.cls-1{fill:#fff;}</style></defs><title>MH_logo</title><g id="Layer_2" data-name="Layer 2"><g id="Layer_1-2" data-name="Layer 1"><path class="cls-1" d="M107.871,8.8789,107.19,0l7.6149,5.6438c3.72,2.7732,4.0338,7.997,4.0338,7.997l.663,8.6422-7.9905-5.9217C108.119,13.89,107.871,8.8789,107.871,8.8789Z"/><path class="cls-1" d="M123.628,20.5937l-.6806-8.8789,7.6149,5.6438c3.72,2.7732,4.0338,7.997,4.0338,7.997l.663,8.6422-7.9905-5.9217C123.876,25.6051,123.628,20.5937,123.628,20.5937Z"/><path class="cls-1" d="M139.385,32.3085l-.6806-8.8789,7.6149,5.6438c3.72,2.7732,4.0338,7.997,4.0338,7.997l.663,8.6422-7.9905-5.9217C139.633,37.32,139.385,32.3085,139.385,32.3085Z"/><path class="cls-1" d="M95.5482,12.4447,86.85,14.35l7.598,5.6665c3.7272,2.7635,8.82,1.5593,8.82,1.5593l8.4669-1.8545-7.9723-5.9461C100.4187,11.2387,95.5482,12.4447,95.5482,12.4447Z"/><path class="cls-1" d="M111.3052,24.1595l-8.6987,1.9058,7.598,5.6665c3.7272,2.7635,8.82,1.5593,8.82,1.5593l8.4669-1.8545L119.5191,25.49C116.1757,22.9535,111.3052,24.1595,111.3052,24.1595Z"/><path class="cls-1" d="M127.0622,35.8743,118.3636,37.78l7.598,5.6665c3.7272,2.7635,8.82,1.5593,8.82,1.5593l8.4669-1.8545-7.9723-5.9461C131.9326,34.6683,127.0622,35.8743,127.0622,35.8743Z"/><path class="cls-1" d="M288.7515,8.8789,289.4321,0l-7.6149,5.6438c-3.72,2.7732-4.0338,7.997-4.0338,7.997l-.663,8.6422,7.9905-5.9217C288.5034,13.89,288.7515,8.8789,288.7515,8.8789Z"/><path class="cls-1" d="M272.9945,20.5937l.6806-8.8789L266.06,17.3585c-3.72,2.7732-4.0338,7.997-4.0338,7.997l-.663,8.6422,7.9905-5.9217C272.7465,25.6051,272.9945,20.5937,272.9945,20.5937Z"/><path class="cls-1" d="M257.2375,32.3085l.6806-8.8789-7.6149,5.6438c-3.72,2.7732-4.0338,7.997-4.0338,7.997l-.663,8.6422,7.9905-5.9217C256.9895,37.32,257.2375,32.3085,257.2375,32.3085Z"/><path class="cls-1" d="M301.0742,12.4447l8.6987,1.9058-7.598,5.6665c-3.7272,2.7635-8.82,1.5593-8.82,1.5593l-8.4669-1.8545,7.9723-5.9461C296.2038,11.2387,301.0742,12.4447,301.0742,12.4447Z"/><path class="cls-1" d="M285.3172,24.1595l8.6987,1.9058-7.598,5.6665c-3.7272,2.7635-8.82,1.5593-8.82,1.5593l-8.4669-1.8545,7.9723-5.9461C280.4468,22.9535,285.3172,24.1595,285.3172,24.1595Z"/><path class="cls-1" d="M269.56,35.8743l8.6987,1.9058-7.598,5.6665c-3.7272,2.7635-8.82,1.5593-8.82,1.5593l-8.4669-1.8545,7.9723-5.9461C264.69,34.6683,269.56,35.8743,269.56,35.8743Z"/><path class="cls-1" d="M16.8529,210.287,6.36,207.9857l9.1672-6.8339c4.497-3.3328,10.64-1.8788,10.64-1.8788l10.2136,2.2393-9.6189,7.1711C22.728,211.743,16.8529,210.287,16.8529,210.287Z"/><path class="cls-1" d="M35.8642,196.1588l-10.4931-2.3012,9.1672-6.8339c4.497-3.3328,10.64-1.8788,10.64-1.8788l10.2136,2.2393-9.6189,7.1711C41.7394,197.6148,35.8642,196.1588,35.8642,196.1588Z"/><path class="cls-1" d="M54.8756,182.0306l-10.4931-2.3012,9.1672-6.8339c4.497-3.3328,10.64-1.8788,10.64-1.8788l10.2136,2.2393-9.6189,7.1711C60.7507,183.4867,54.8756,182.0306,54.8756,182.0306Z"/><path class="cls-1" d="M16.687,225.7614l-.8232,10.7109,9.1876-6.8064C29.54,226.3214,29.92,220.02,29.92,220.02l.8019-10.4254-9.6408,7.1416C16.9875,219.716,16.687,225.7614,16.687,225.7614Z"/><path class="cls-1" d="M35.6983,211.6333l-.8232,10.7109,9.1876-6.8064c4.4883-3.3445,4.8681-9.6462,4.8681-9.6462l.8019-10.4254-9.6408,7.1416C35.9988,205.5879,35.6983,211.6333,35.6983,211.6333Z"/><path class="cls-1" d="M54.71,197.5051l-.8232,10.7109,9.1876-6.8064c4.4883-3.3445,4.8681-9.6462,4.8681-9.6462l.8019-10.4254L59.1033,188.48C55.01,191.46,54.71,197.5051,54.71,197.5051Z"/><path class="cls-1" d="M379.77,210.287l10.4931-2.3012-9.1672-6.8339c-4.497-3.3328-10.64-1.8788-10.64-1.8788l-10.2136,2.2393,9.6189,7.1711C373.8944,211.743,379.77,210.287,379.77,210.287Z"/><path class="cls-1" d="M360.7582,196.1588l10.4931-2.3012-9.1672-6.8339c-4.497-3.3328-10.64-1.8788-10.64-1.8788L341.23,187.3841l9.6189,7.1711C354.8831,197.6148,360.7582,196.1588,360.7582,196.1588Z"/><path class="cls-1" d="M341.7469,182.0306l10.4931-2.3012-9.1672-6.8339c-4.497-3.3328-10.64-1.8788-10.64-1.8788l-10.2136,2.2393,9.6189,7.1711C335.8718,183.4867,341.7469,182.0306,341.7469,182.0306Z"/><path class="cls-1" d="M379.9355,225.7614l.8232,10.7109-9.1876-6.8064c-4.4883-3.3445-4.8681-9.6462-4.8681-9.6462l-.8019-10.4254,9.6408,7.1416C379.635,219.716,379.9355,225.7614,379.9355,225.7614Z"/><path class="cls-1" d="M360.9241,211.6333l.8232,10.7109-9.1876-6.8064c-4.4883-3.3445-4.8681-9.6462-4.8681-9.6462l-.8019-10.4254,9.6408,7.1416C360.6237,205.5879,360.9241,211.6333,360.9241,211.6333Z"/><path class="cls-1" d="M341.9128,197.5051l.8232,10.7109-9.1876-6.8064c-4.4883-3.3445-4.8681-9.6462-4.8681-9.6462l-.8019-10.4254,9.6408,7.1416C341.6123,191.46,341.9128,197.5051,341.9128,197.5051Z"/><path class="cls-1" d="M99.9238,189.66V172.1474H96.3393L89.3941,189.66l.7468,3.0245H96.414v6.2731h3.51v-6.2731h2.0537V189.66Zm-3.3977,0H93.2027l3.3981-10.38h.1864Z"/><path class="cls-1" d="M114.8592,183.6107h-1.0828l-2.24,1.4937v-8.14q0-1.57,1.4188-1.569h.5972q1.6053,0,1.6057,1.9418v2.39h3.5846V176.74q0-4.5925-4.1074-4.5926h-2.5765q-4.1076,0-4.107,4.5926v17.6993q0,4.5191,4.107,4.5182h2.8q4.107,0,4.1074-4.5182v-6.235Q118.9666,183.61,114.8592,183.6107Zm.5228,10.4921a1.4194,1.4194,0,0,1-1.6056,1.6061h-.672a1.4028,1.4028,0,0,1-1.568-1.6061v-7.2435h2.24q1.6053,0,1.6056,1.9417Z"/><path class="cls-1" d="M125.7625,178.0841l-.8216-2.4632a6.8449,6.8449,0,0,0,2.3525-1.4573,7.6908,7.6908,0,0,0,1.5309-2.0161h.3732l2.3525,1.27v25.54h-3.5474V177.4129Z"/><polygon class="cls-1" points="164.78 172.147 160.822 198.957 156.938 198.957 154.735 183.425 152.57 198.957 148.686 198.957 144.728 172.147 148.276 172.147 150.815 192.236 153.354 172.147 156.154 172.147 158.693 192.236 161.233 172.147 164.78 172.147"/><path class="cls-1" d="M182.48,178.0841l-.8216-2.4632a6.8449,6.8449,0,0,0,2.3525-1.4573,7.6908,7.6908,0,0,0,1.5309-2.0161h.3732l2.3525,1.27v25.54H184.72V177.4129Z"/><path class="cls-1" d="M205.5175,195.7461v3.2114h-9.6336v-8.252a4.7032,4.7032,0,0,1,.112-1.12,2.4583,2.4583,0,0,1,.3918-.84,9.8205,9.8205,0,0,1,.9894-1.1014l3.6222-3.4734a9.63,9.63,0,0,0,.6534-.7084,2.5115,2.5115,0,0,0,.336-.5047,1.3,1.3,0,0,0,.112-.4294c.0123-.15.0186-.3483.0186-.5976v-4.9654a1.37,1.37,0,0,0-1.5309-1.5689h-.224a1.37,1.37,0,0,0-1.5309,1.5689v2.7625h-3.5846V176.74q0-4.5926,4.2938-4.5926H201.41q4.2934,0,4.2938,4.5926v6.4227a3.7973,3.7973,0,0,1-.2054,1.3069,4.1568,4.1568,0,0,1-1.0638,1.3812l-3.9582,3.809a4.3548,4.3548,0,0,0-.8588.97,1.6187,1.6187,0,0,0-.1306.5232c-.0127.175-.0186.4108-.0186.7092v3.8834Z"/><path class="cls-1" d="M219.9673,183.6107h-1.0829l-2.24,1.4937v-8.14q0-1.57,1.4188-1.569h.5972q1.6053,0,1.6057,1.9418v2.39h3.5845V176.74q0-4.5925-4.1073-4.5926h-2.5765q-4.1077,0-4.107,4.5926v17.6993q0,4.5191,4.107,4.5182h2.8q4.107,0,4.1074-4.5182v-6.235Q224.0748,183.61,219.9673,183.6107Zm.5228,10.4921a1.4194,1.4194,0,0,1-1.6057,1.6061h-.672a1.4028,1.4028,0,0,1-1.568-1.6061v-7.2435h2.24q1.6053,0,1.6057,1.9417Z"/><polygon class="cls-1" points="236.882 175.396 236.882 198.957 233.298 198.957 233.298 175.396 229.863 175.396 229.863 172.147 240.317 172.147 240.317 175.396 236.882 175.396"/><polygon class="cls-1" points="254.095 198.957 254.095 186.785 249.689 186.785 249.689 198.957 246.104 198.957 246.104 172.147 249.689 172.147 249.689 183.536 254.095 183.536 254.095 172.147 257.679 172.147 257.679 198.957 254.095 198.957"/><path class="cls-1" d="M281.3516,179.3538v-2.3517a1.4031,1.4031,0,0,0-1.5681-1.6061h-.56q-1.5317,0-1.5309,1.6061v4.443a1.3146,1.3146,0,0,0,.2984,1.0085,7.5426,7.5426,0,0,0,.97.672l3.3982,1.8293a15.8637,15.8637,0,0,1,1.5867.99,2.5518,2.5518,0,0,1,.7287.8588,4.7487,4.7487,0,0,1,.2612,1.9231v5.7126q0,4.5191-4.3314,4.5182h-2.2029q-4.2946,0-4.2942-4.929v-1.3441h3.585v1.4565a1.4022,1.4022,0,0,0,1.6053,1.5681h.6348q1.4189,0,1.4184-1.5681v-4.5554a1.3206,1.3206,0,0,0-.2984-1.0085,7.6934,7.6934,0,0,0-.97-.672L276.6846,186a10.6368,10.6368,0,0,1-1.6247-1.0085,2.3034,2.3034,0,0,1-.7278-1.0634,5.3448,5.3448,0,0,1-.224-1.6991V176.74q0-4.5926,4.2942-4.5926h2.24q4.2934,0,4.2942,4.5926v2.6137Z"/><polygon class="cls-1" points="297.37 175.396 297.37 198.957 293.786 198.957 293.786 175.396 290.351 175.396 290.351 172.147 300.806 172.147 300.806 175.396 297.37 175.396"/><rect class="cls-1" x="303.4194" y="194.4021" width="3.809" height="4.5554"/><rect class="cls-1" x="167.4127" y="194.4021" width="3.809" height="4.5554"/><path class="cls-1" d="M180.7555,23.2153V51.0138h-4.2291V23.2153h-4.0531V19.3828h12.3353v3.8325Z"/><path class="cls-1" d="M201.0651,51.0138V36.6519h-5.1984V51.0138h-4.2291V19.3828h4.2291V32.8194h5.1984V19.3828h4.2291v31.631Z"/><path class="cls-1" d="M213.6644,51.0138V19.3828h10.4848v3.8325h-6.2557v9.6041h5.55v3.8325h-5.55V47.1813h6.2557v3.8325Z"/><path class="cls-1" d="M27.7,129.8252q1.007-21.4686,2.3936-42.958,5.6262-.9058,11.26-1.7506Q46.65,120.4433,51.9482,155.77q-4.7574.7134-9.51,1.4735-3.1983-23.1689-6.35-46.3448-1.0786,17.2992-1.9095,34.5861-3.7081.6171-7.4128,1.2623Q20.26,130.71,13.5121,114.7432q4.6981,22.9124,9.35,45.834-4.74.8564-9.4745,1.7595Q6.6936,127.2477,0,92.1588,5.6054,91.09,11.2194,90.0812,19.6438,109.899,27.7,129.8252Z"/><path class="cls-1" d="M73.8789,152.7321q-4.7684.6061-9.5326,1.2588Q60.3279,124.6627,56.31,95.3344C55.1921,87.258,58.716,82.6327,66.8958,81.6036q3.8365-.48,7.6756-.9321c8.1848-.958,12.7094,2.69,13.5578,10.7988q3.1179,29.4376,6.2359,58.8752-4.7779.506-9.552,1.0588-1.5048-12.9978-3.01-25.9955-5.6148.65-11.224,1.363Q72.2291,139.752,73.8789,152.7321Zm6.9288-35.9233q-1.3674-11.8114-2.7349-23.623c-.3192-2.7666-1.96-3.9826-4.9222-3.6275q-1.3742.165-2.748.3337c-2.9621.3644-4.2657,1.9379-3.9132,4.7q1.4991,11.7955,2.9984,23.591Q75.1448,117.4645,80.8077,116.8088Z"/><path class="cls-1" d="M129.541,147.2552q-11.3732.7944-22.7311,1.852-3.3121-35.5678-6.624-71.1356,5.1287-.4776,10.2607-.9051,2.6063,31.2851,5.2127,62.57,6.6366-.5529,13.2785-1.0168Z"/><path class="cls-1" d="M146.1876,83.3647q1.559,31.3545,3.1178,62.709-4.7929.2383-9.584.5232-1.8639-31.3379-3.7275-62.6757-4.8839.29-9.7658.6265-.2971-4.3182-.5945-8.6364,14.979-1.0311,29.9769-1.6366l.3493,8.65Q151.073,83.1218,146.1876,83.3647Z"/><path class="cls-1" d="M209.3565,144.918l.363-32.4363q-6.0905-.0682-12.1812-.0636.012,16.2192.0246,32.4383-4.7977.0036-9.5959.0539-.3742-35.72-.7488-71.4394,5.1451-.0539,10.2905-.0578.0115,15.1738.023,30.3476,6.1426-.0046,12.2847.0641.17-15.1728.34-30.3457,5.1445.0576,10.2884.1652-.7469,35.7138-1.4941,71.4277Q214.1539,144.9717,209.3565,144.918Z"/><path class="cls-1" d="M243.0271,145.87c-7.7145-.3449-11.4423-4.4954-11.18-12.59q.79-23.5191,1.58-47.0383c.263-8.149,4.508-12.1129,12.73-11.7463q4.927.223,9.8523.4919c8.2171.454,12.05,4.8213,11.5,12.956l-3.1132,46.9617c-.547,8.0806-4.6727,11.839-12.382,11.4139Q247.5209,146.0736,243.0271,145.87Zm2.709-8.54q2.4679.1177,4.9357.2477c2.55.1348,3.9054-1.1817,4.0636-3.9646l2.5833-45.6981c.159-2.78-1.2858-4.261-4.3309-4.4205q-2.3892-.1246-4.7788-.2383c-2.9757-.141-4.5242,1.19-4.6435,3.9722q-.9907,22.8641-1.9813,45.7281C241.4649,135.7417,242.8488,137.1931,245.736,137.33Z"/><path class="cls-1" d="M315.0165,79.8672q-3.193,28.7791-6.3861,57.5582c-1.0066,8.9705-5.351,13.0036-13.0393,12.237q-4.033-.4-8.0684-.7658c-7.6282-.6871-11.0937-5.4963-10.3891-14.5629q2.2774-28.8157,4.5544-57.6315,5.1335.4056,10.2635.8614-2.5708,28.9407-5.1415,57.8815c-.2749,3.108.9946,4.7822,3.8075,5.0434q1.96.1825,3.919.3727c2.61.254,4.0718-1.1617,4.3871-4.2658q2.9226-28.9073,5.8452-57.8146Q309.8945,79.299,315.0165,79.8672Z"/><path class="cls-1" d="M345.7414,103.1292q.4448-3.1028.8894-6.2057c.4056-2.8219-.8679-4.4492-3.8246-4.8609q-.7915-.11-1.5831-.2188c-2.8885-.3961-4.519.8292-4.8943,3.6554q-.7816,5.869-1.5634,11.7379a3.3965,3.3965,0,0,0,.4759,2.774,21.582,21.582,0,0,0,2.4527,2.1384q4.379,3.0591,8.7086,6.1557a42.0307,42.0307,0,0,1,3.98,3.2557,6.8185,6.8185,0,0,1,1.6558,2.5664q.5132,1.4359-.06,5.1742-1.1536,7.5245-2.3069,15.049c-1.2277,7.9376-5.6655,11.2938-13.3259,10.2067q-2.9266-.4134-5.855-.8092c-7.6006-1.0224-10.8757-5.8147-9.8156-14.512q.2193-1.7778.4384-3.5556,4.8509.5981,9.6976,1.2436-.2562,1.9234-.5124,3.8468c-.3663,2.7634.8855,4.3327,3.7546,4.7268q.8509.1172,1.7018.2357,3.8014.5306,4.3954-3.6.8611-6.0079,1.7222-12.0158a3.4292,3.4292,0,0,0-.4342-2.776,20.8435,20.8435,0,0,0-2.4029-2.1488q-4.2986-3.1632-8.648-6.2894a30.7932,30.7932,0,0,1-4.1365-3.2387,6.1612,6.1612,0,0,1-1.6615-3.0653,13.66,13.66,0,0,1-.0672-4.57q.8948-7.2586,1.79-14.5172c.9867-8.0934,5.5736-11.663,13.7471-10.5639q3.194.4317,6.3861.8829c8.165,1.16,11.6186,5.8413,10.3726,13.8988q-.5278,3.4427-1.0555,6.8854Q350.755,103.8478,345.7414,103.1292Z"/><path class="cls-1" d="M359.7262,158.1462q5.8428-35.2406,11.6851-70.4812,12.6257,2.0932,25.211,4.4939-.8109,4.2518-1.6221,8.5035-7.4465-1.42-14.908-2.7325-1.8781,10.6815-3.7563,21.363,6.4839,1.14,12.9568,2.364-.8041,4.2534-1.6084,8.5068-6.418-1.2135-12.8477-2.3441-2.0594,11.7114-4.1186,23.4227,7.0765,1.2443,14.1392,2.5916-.8109,4.2514-1.622,8.5029Q371.5,160.0981,359.7262,158.1462Z"/></g></g></svg>