<svg xmlns="http://www.w3.org/2000/svg" viewBox="0 0 95 34.1992"><defs><style>.cls-1{fill:#00b3ed;}.cls-2{fill:#fff;}</style></defs><title>TestFit_Blue</title><g id="Layer_2" data-name="Layer 2"><g id="Layer_1-2" data-name="Layer 1"><polygon class="cls-1" points="95 17.1 86.449 8.55 77.898 0 77.898 0 0 0 0 34.199 77.898 34.199 77.898 34.199 86.449 25.649 95 17.1"/><path class="cls-2" d="M22.1543,13.6543v9.1611H21.0337V13.6543H18.0078v-.9521H25.18v.9521Z"/><path class="cls-2" d="M30.7231,21.2607a2.9222,2.9222,0,0,1-2.8013,1.6948c-1.625,0-3.166-1.1206-3.166-3.7822,0-2.353,1.1768-3.7817,2.97-3.7817,1.5127,0,2.7734.98,2.7734,3.3057V19.37H25.7646c0,1.5967.9526,2.7173,2.1572,2.7173a2.2517,2.2517,0,0,0,2.0171-1.2324Zm-1.2324-2.76c0-1.3447-.6445-2.2412-1.7368-2.2412-1.2187,0-1.877.8965-1.9614,2.2412Z"/><path class="cls-2" d="M32.3306,20.9663a2.4591,2.4591,0,0,0,2.0869,1.1206c1.0928,0,1.5688-.5884,1.5688-1.2046,0-1.8491-4.3145-.8687-4.23-3.53.0425-1.2607,1.0088-1.9751,2.41-1.9609a3.2016,3.2016,0,0,1,2.4932,1.2744l-.7.6162a2.2755,2.2755,0,0,0-1.877-1.0225c-.8545,0-1.3169.4346-1.3169,1.0786,0,1.583,4.23.7705,4.23,3.4878,0,1.415-1.2329,2.1294-2.55,2.1294a3.63,3.63,0,0,1-2.9131-1.3867Z"/><path class="cls-2" d="M38.8545,15.5313v-2.395h1.0083v2.395h1.6812V16.4H39.8628V21.583c0,.3359.2383.5039.8267.5039a5.6911,5.6911,0,0,0,.8965-.07v.8262a4.6334,4.6334,0,0,1-1.1768.1123c-1.0928,0-1.5547-.28-1.5547-1.2046V16.4H37.6636v-.8687Z"/><path class="cls-2" d="M53.7393,12.7021v.9521H48.8647v3.39h3.6138v.9526H48.8647v4.8184H47.7441V12.7021Z"/><path class="cls-2" d="M56.5786,12.562v1.2046H55.57V12.562ZM55.57,15.5313h1.0083v7.2842H55.57Z"/><path class="cls-2" d="M59.4624,15.5313v-2.395h1.0083v2.395h1.6812V16.4H60.4707V21.583c0,.3359.2383.5039.8267.5039a5.6911,5.6911,0,0,0,.8965-.07v.8262a4.6334,4.6334,0,0,1-1.1768.1123c-1.0923,0-1.5547-.28-1.5547-1.2046V16.4H58.2715v-.8687Z"/></g></g></svg>